<svg width="158" height="158" viewBox="0 0 158 158" fill="none" xmlns="http://www.w3.org/2000/svg">
<g clip-path="url(#clip0_8_58)">
<rect width="158" height="158" fill="black"/>
<rect x="0.5" y="0.5" width="157" height="157" fill="black" stroke="white"/>
<path d="M120.094 81.1328C120.406 81.1328 120.57 81.3203 120.586 81.6953V83.0547C120.586 83.7266 120.469 86.9297 120.234 92.6641L120.211 93.2969C120.195 93.9219 120.188 94.5781 120.188 95.2656V96.6016L120.094 99.6953L120.141 100.469C120.141 100.906 120.125 101.328 120.094 101.734L120.07 102.344L120.211 112.75C120.508 113.938 120.328 114.469 119.672 114.344C119.469 114.156 119.352 113.758 119.32 113.148L118.734 113.734C118.297 114.328 117.609 114.648 116.672 114.695C115.078 114.508 114.156 113.414 113.906 111.414C113.828 110.836 113.766 110.234 113.719 109.609L113.695 105.719C113.727 104.594 113.883 103.617 114.164 102.789C114.914 100.398 115.609 99.1172 116.25 98.9453C116.328 98.7266 116.898 98.5859 117.961 98.5234L118.266 98.5C118.531 98.5312 118.812 98.6875 119.109 98.9688L119.062 96.7188V95.0078C119.078 93.6953 119.141 91.3203 119.25 87.8828L119.461 82.4688V81.9062C119.445 81.4062 119.656 81.1484 120.094 81.1328ZM114.797 105.766V109.492L114.867 110.453C114.898 110.969 114.984 111.484 115.125 112L115.477 112.75C116.055 113.453 116.695 113.672 117.398 113.406C118.102 113.141 118.641 112.523 119.016 111.555L118.875 102.789C118.922 102.414 118.945 101.977 118.945 101.477L118.922 100.727C118.797 100.211 118.453 99.8516 117.891 99.6484C116.672 99.8828 115.859 100.875 115.453 102.625C115.172 103.609 114.953 104.656 114.797 105.766Z" fill="white"/>
<path d="M106.555 101.055L107.023 101.031C107.352 101.062 107.68 101.133 108.008 101.242L108.5 101.5C109.094 101.922 109.492 102.336 109.695 102.742C109.914 103.148 110.062 103.523 110.141 103.867C110.234 104.211 110.281 104.719 110.281 105.391C110.281 106.172 110.234 106.938 110.141 107.688L109.93 108.906L109.648 110.172C109.539 110.516 109.219 110.766 108.688 110.922L107.891 110.945H105.898L104.703 110.922C104.734 112.375 104.961 113.609 105.383 114.625C105.711 115.5 106.273 116.117 107.07 116.477L107.375 116.5C107.609 116.484 107.867 116.391 108.148 116.219C108.477 116 108.867 115.258 109.32 113.992L109.555 113.969C109.695 114 109.82 114.109 109.93 114.297L110.047 114.625C109.891 115.719 109.492 116.523 108.852 117.039C108.445 117.43 107.953 117.633 107.375 117.648C107 117.648 106.68 117.625 106.414 117.578C106.164 117.516 105.852 117.289 105.477 116.898L104.984 116.242C104.672 115.914 104.32 115.117 103.93 113.852C103.742 112.992 103.617 111.766 103.555 110.172L103.508 107.781C103.555 106.469 103.617 105.578 103.695 105.109C103.789 104.641 103.953 104.062 104.188 103.375C104.422 102.797 104.711 102.305 105.055 101.898C105.414 101.461 105.914 101.18 106.555 101.055ZM104.633 108.789L104.68 109.797L105.805 109.773H107.797L108.594 109.75L108.875 108.531C109.094 107.625 109.203 106.82 109.203 106.117L109.156 104.875C109 103.734 108.578 102.953 107.891 102.531C107.656 102.328 107.398 102.227 107.117 102.227C106.727 102.242 106.422 102.312 106.203 102.438C105.5 103.031 105.062 103.844 104.891 104.875L104.75 105.859C104.672 106.422 104.625 107.039 104.609 107.711L104.633 108.789Z" fill="white"/>
<path d="M97.2734 88.4375C97.5234 88.4375 97.6797 88.5625 97.7422 88.8125C97.7422 90.0781 97.7109 91.9844 97.6484 94.5312C97.7734 103.281 97.8359 110.688 97.8359 116.75C97.8359 118.734 97.9375 119.898 98.1406 120.242C98.3438 120.602 98.7266 120.773 99.2891 120.758L99.7344 120.711C100.062 120.742 100.18 120.984 100.086 121.438C99.8516 121.75 99.4766 121.906 98.9609 121.906C98.6953 121.906 98.4219 121.875 98.1406 121.812C97.2031 121.672 96.7266 119.984 96.7109 116.75V116.656C96.7109 111.219 96.6484 103.75 96.5234 94.25C96.5859 91.8125 96.6172 90.0625 96.6172 89C96.7109 88.625 96.9297 88.4375 97.2734 88.4375Z" fill="white"/>
<path d="M87.2734 85.4375C87.5234 85.4375 87.6797 85.5625 87.7422 85.8125C87.7422 87.0781 87.7109 88.9844 87.6484 91.5312C87.7734 100.281 87.8359 107.688 87.8359 113.75C87.8359 115.734 87.9375 116.898 88.1406 117.242C88.3438 117.602 88.7266 117.773 89.2891 117.758L89.7344 117.711C90.0625 117.742 90.1797 117.984 90.0859 118.438C89.8516 118.75 89.4766 118.906 88.9609 118.906C88.6953 118.906 88.4219 118.875 88.1406 118.812C87.2031 118.672 86.7266 116.984 86.7109 113.75V113.656C86.7109 108.219 86.6484 100.75 86.5234 91.25C86.5859 88.8125 86.6172 87.0625 86.6172 86C86.7109 85.625 86.9297 85.4375 87.2734 85.4375Z" fill="white"/>
<path d="M77.8594 95.3438L78.2109 95.3672C78.5391 95.5078 78.7109 95.7422 78.7266 96.0703V96.3516C78.6641 96.7734 78.375 96.9844 77.8594 96.9844C77.375 96.8594 77.1328 96.6016 77.1328 96.2109L77.1797 95.9531C77.2578 95.6562 77.4844 95.4531 77.8594 95.3438ZM77.9766 100.078C78.2891 100.078 78.4453 100.266 78.4453 100.641L78.4688 109.172L78.5156 116.062C78.5156 116.438 78.3281 116.625 77.9531 116.625C77.5781 116.594 77.3828 116.352 77.3672 115.898L77.3438 109.195L77.3203 108.234V100.664C77.4141 100.273 77.6328 100.078 77.9766 100.078Z" fill="white"/>
<path d="M65.5312 81.3906C65.8438 81.3906 66 81.5469 66 81.8594C66 83.7188 66.125 88.7656 66.375 97V99.5312H66.4688C66.4688 99.0938 67.2188 98.5625 68.7188 97.9375C69.4219 97.875 70.0781 97.8438 70.6875 97.8438C71.3125 97.8438 71.8125 98.1875 72.1875 98.875C72.5 99.4531 72.6875 102.078 72.75 106.75C72.625 110.875 72.5625 113.344 72.5625 114.156C72.5625 114.531 72.3438 114.719 71.9062 114.719C71.7031 114.719 71.5469 114.586 71.4375 114.32V113.781C71.4375 113.422 71.5 110.984 71.625 106.469C71.625 101.594 71.375 99.1562 70.875 99.1562C70.875 99.0469 70.7188 98.9844 70.4062 98.9688H70.3125C68.6094 98.9688 67.4531 99.6562 66.8438 101.031C66.7344 101.031 66.5781 101.5 66.375 102.438C66.25 107.062 66.1875 111.031 66.1875 114.344C66.125 114.594 65.9375 114.719 65.625 114.719C65.25 114.719 65.0625 114.438 65.0625 113.875C65.1875 105.172 65.25 100.078 65.25 98.5938V96.7188C65 89.0938 64.875 84.1719 64.875 81.9531C64.9688 81.5781 65.1875 81.3906 65.5312 81.3906Z" fill="white"/>
<path d="M57.1912 98.3712C57.5191 98.471 57.7616 98.5817 57.919 98.7034C58.0898 98.8075 58.1766 98.9934 58.1793 99.2608C58.1757 99.3558 58.1469 99.4382 58.0928 99.5081C58.0272 99.611 57.9566 99.6752 57.8811 99.7006C57.7726 99.7145 57.6612 99.7051 57.5467 99.6725L57.1337 99.5836L56.6568 99.5501L56.2819 99.5744C56.0689 99.6331 55.8878 99.6957 55.7388 99.762L55.4079 99.9461L54.9351 100.314C54.3107 100.85 53.9334 101.411 53.8033 101.994C53.6712 102.563 53.511 103.465 53.3226 104.702C53.2318 105.47 53.2601 106.553 53.4076 107.952C53.6512 109.118 53.9446 110.057 54.2878 110.769C54.6444 111.464 55.0151 111.96 55.3996 112.258C55.9673 112.878 56.7078 113.248 57.6209 113.368C57.8574 113.369 58.1461 113.348 58.487 113.304C58.766 113.268 59.0651 113.143 59.3843 112.929L59.6657 112.728L59.8195 112.637C59.928 112.623 60.0279 112.666 60.1193 112.764L60.2509 113.055C60.1983 113.629 59.8439 114.06 59.1877 114.349L58.4527 114.513C58.1118 114.557 57.8085 114.588 57.5431 114.606L57.2319 114.575L56.5775 114.446C56.2962 114.34 55.9769 114.184 55.6197 113.978C55.2605 113.756 54.9624 113.519 54.7252 113.265C53.9497 112.498 53.387 111.609 53.0372 110.599C52.801 109.983 52.63 109.509 52.5244 109.176C52.4343 108.841 52.3684 108.51 52.3268 108.185L52.1097 106.488C52.0947 106.001 52.1019 105.441 52.131 104.807C52.1211 104.73 52.1799 104.266 52.3073 103.414C52.3404 102.812 52.4791 102.172 52.7233 101.495C52.9826 100.69 53.5153 99.9283 54.3215 99.2108C54.8902 98.8545 55.3546 98.6061 55.7147 98.4655L56.0342 98.3774C56.1717 98.344 56.318 98.3175 56.473 98.2976C56.6629 98.3048 56.9023 98.3294 57.1912 98.3712Z" fill="white"/>
<rect x="70" y="83" width="15" height="15" rx="7.5" fill="black"/>
<path d="M78.0365 89.7402C78.2362 89.7738 78.3182 89.8967 78.2825 90.1089C78.0994 91.4259 77.9732 92.2904 77.9039 92.7023C79.3679 92.0116 80.1364 91.6403 80.2093 91.5884C80.2343 91.5926 80.3186 91.5875 80.4622 91.5732C80.7284 91.6693 80.8416 91.836 80.8017 92.0732C80.612 92.2851 80.3495 92.4335 80.0144 92.5183C79.5374 92.759 78.8742 93.0389 78.0247 93.358C79.0964 94.6936 79.6175 95.4488 79.5881 95.6235L79.5787 95.6797C79.543 95.8919 79.4128 95.9791 79.1881 95.9413C79.0133 95.9119 78.4795 95.3086 77.5864 94.1315L77.2273 96.266C77.1853 96.5157 77.0519 96.6216 76.8272 96.5838C76.5901 96.5439 76.4925 96.3991 76.5345 96.1495L76.9157 93.8838C75.5205 94.4706 74.7605 94.7535 74.6357 94.7325C74.3985 94.6926 74.3009 94.5478 74.3429 94.2981C74.3829 94.061 74.9774 93.7695 76.1267 93.4238C76.1372 93.3614 76.3111 93.2815 76.6483 93.1842C76.6152 93.076 76.0595 92.4498 74.9812 91.3056L74.9599 90.9747C74.9956 90.7625 75.1321 90.6763 75.3692 90.7163C75.519 90.7415 76.1341 91.3199 77.2145 92.4515L77.2365 92.3205C77.4427 90.8662 77.5511 90.1078 77.5616 90.0454C77.666 89.8062 77.8243 89.7045 78.0365 89.7402Z" fill="white"/>
<path d="M72.6562 41.3672C72.9688 41.3672 73.125 41.5547 73.125 41.9297V45.4688C73.125 48.125 73.1562 50.3125 73.2188 52.0312V62.4375C73.4219 62.2188 73.6797 61.8906 73.9922 61.4531C74.4922 60.9062 74.9609 60.3438 75.3984 59.7656C75.8672 59.2812 76.3125 58.7344 76.7344 58.125L77.2031 57.8672C77.5156 57.9766 77.6719 58.2188 77.6719 58.5938C77.2188 59.4375 76.6875 60.1875 76.0781 60.8438C75.5469 61.5312 75.1406 62.0469 74.8594 62.3906C74.5781 62.7188 74.375 62.9844 74.25 63.1875C74.75 64.3281 75.4375 66.3281 76.3125 69.1875C76.7031 70.0938 77.0547 71.0234 77.3672 71.9766C77.7266 72.6953 78.0625 73.4766 78.375 74.3203C78.375 74.6328 78.1875 74.7891 77.8125 74.7891C77.4062 74.7891 77.0938 74.3516 76.875 73.4766C76.3125 72.3203 75.9141 71.3438 75.6797 70.5469C75.5859 70.3281 75.2969 69.5312 74.8125 68.1562C74.4375 66.9219 73.9766 65.6406 73.4297 64.3125L73.125 64.7812L73.2656 73.9922C73.2656 74.6172 73.0469 74.9297 72.6094 74.9297C72.4062 74.9297 72.25 74.75 72.1406 74.3906V73.5234L72 61.1016L72.0938 52.125C72.0312 50.5938 72 48.4375 72 45.6562V42.1172C72 41.6172 72.2188 41.3672 72.6562 41.3672Z" fill="white"/>
<path d="M64.0547 53.0547C64.8672 53.1328 65.5078 53.4922 65.9766 54.1328C66.2734 54.5391 66.4375 55 66.4688 55.5156L66.5156 56.2656C66.4844 57.125 66.4844 59.9844 66.5156 64.8438L66.4453 69.1562C66.4141 69.4688 66.2734 69.6562 66.0234 69.7188C65.6016 69.6719 65.3906 69.4219 65.3906 68.9688V64.8438C65.3906 63.9531 65.3984 61.2188 65.4141 56.6406C65.5234 55.2812 65.0234 54.4844 63.9141 54.25C62.5859 54.1562 61.5234 55.0156 60.7266 56.8281L60.6094 68.9688C60.5938 69.2969 60.4453 69.5 60.1641 69.5781C59.7422 69.5312 59.5312 69.2812 59.5312 68.8281V61.8906C59.5312 59.8594 59.5625 57.1719 59.625 53.8281C59.7344 53.4531 59.9844 53.2656 60.375 53.2656C60.6094 53.3438 60.7266 53.5625 60.7266 53.9219L60.6328 54.9766C61.1797 53.6953 62.3203 53.0547 64.0547 53.0547Z" fill="white"/>
<path d="M52.8047 49.5234H53.3672C53.6172 49.5703 53.7891 49.7266 53.8828 49.9922C53.8984 50.3672 53.9766 51.0469 54.1172 52.0312L54.1406 54.9141L54.0938 57.1875C54.0938 58.3438 54.1016 59.5078 54.1172 60.6797L54.1875 62.0391C54.25 62.7578 54.2891 63.3125 54.3047 63.7031C54.3359 64.0781 54.3672 64.4531 54.3984 64.8281V65.1094C54.3984 65.2812 54.2656 65.4297 54 65.5547C53.6719 65.5234 53.4766 65.3359 53.4141 64.9922C53.3516 64.4922 53.2969 63.9844 53.25 63.4688C53.2188 64.0156 52.7344 64.6016 51.7969 65.2266C51.25 65.4453 50.75 65.5703 50.2969 65.6016C49.7656 65.5547 49.3359 65.3984 49.0078 65.1328C48.4609 64.7109 48.0469 64.2188 47.7656 63.6562C47.4219 62.7031 47.2109 61.75 47.1328 60.7969L47.0391 59.4609V58.2188C47.0859 57.4844 47.2656 56.4844 47.5781 55.2188C48.4688 52.0625 49.6484 50.1797 51.1172 49.5703L51.7266 49.3359C52.1172 49.3516 52.4766 49.4141 52.8047 49.5234ZM48.2578 60.7266C48.4141 62.5547 48.9062 63.7266 49.7344 64.2422L50.2734 64.4766C50.4609 64.4766 50.7266 64.4297 51.0703 64.3359C51.4766 64.1953 51.8828 63.8438 52.2891 63.2812L52.6172 62.6719C52.7734 62.3594 52.8594 62.0469 52.875 61.7344V61.0312L52.9688 57.375C52.9844 55.0781 52.9922 53.4922 52.9922 52.6172L52.9219 51.5391L52.875 50.7422L51.7969 50.6719C50.6406 50.9844 49.7266 52.2578 49.0547 54.4922C48.6797 55.3359 48.3984 56.5781 48.2109 58.2188C48.2109 59.0312 48.2266 59.8672 48.2578 60.7266Z" fill="white"/>
<path d="M39.6261 26C39.8348 26 39.9652 26.1606 40.0174 26.4818C40.0174 28.1078 39.9913 30.557 39.9391 33.8291C40.0435 45.071 40.0957 54.5864 40.0957 62.3754C40.0957 64.9248 40.1804 66.4204 40.35 66.862C40.5196 67.3238 40.8391 67.5446 41.3087 67.5245L41.6804 67.4643C41.9543 67.5044 42.0522 67.8156 41.9739 68.3978C41.7783 68.7993 41.4652 69 41.0348 69C40.813 69 40.5848 68.9599 40.35 68.8796C39.5674 68.6989 39.1696 66.5308 39.1565 62.3754V62.2549C39.1565 55.2689 39.1043 45.6732 39 33.4678C39.0522 30.3361 39.0783 28.0878 39.0783 26.7227C39.1565 26.2409 39.3391 26 39.6261 26Z" fill="white"/>
</g>
<defs>
<clipPath id="clip0_8_58">
<rect width="158" height="158" fill="white"/>
</clipPath>
</defs>
</svg>
