<svg width="199" height="108" viewBox="0 0 199 108" fill="none" xmlns="http://www.w3.org/2000/svg">
<g clip-path="url(#clip0_8_108)">
<rect width="199" height="108" fill="black"/>
<rect width="199" height="108" fill="black"/>
<path d="M159.945 37C160.257 37 160.421 37.1875 160.437 37.5625V38.9219C160.437 39.5938 160.32 42.7969 160.085 48.5312L160.062 49.1641C160.046 49.7891 160.038 50.4453 160.038 51.1328V52.4688L159.945 55.5625L159.991 56.3359C159.991 56.7734 159.976 57.1953 159.945 57.6016L159.921 58.2109L160.062 68.6172C160.359 69.8047 160.179 70.3359 159.523 70.2109C159.32 70.0234 159.202 69.625 159.171 69.0156L158.585 69.6016C158.148 70.1953 157.46 70.5156 156.523 70.5625C154.929 70.375 154.007 69.2812 153.757 67.2812C153.679 66.7031 153.616 66.1016 153.57 65.4766L153.546 61.5859C153.577 60.4609 153.734 59.4844 154.015 58.6562C154.765 56.2656 155.46 54.9844 156.101 54.8125C156.179 54.5938 156.749 54.4531 157.812 54.3906L158.116 54.3672C158.382 54.3984 158.663 54.5547 158.96 54.8359L158.913 52.5859V50.875C158.929 49.5625 158.991 47.1875 159.101 43.75L159.312 38.3359V37.7734C159.296 37.2734 159.507 37.0156 159.945 37ZM154.648 61.6328V65.3594L154.718 66.3203C154.749 66.8359 154.835 67.3516 154.976 67.8672L155.327 68.6172C155.906 69.3203 156.546 69.5391 157.249 69.2734C157.952 69.0078 158.491 68.3906 158.866 67.4219L158.726 58.6562C158.773 58.2812 158.796 57.8438 158.796 57.3438L158.773 56.5938C158.648 56.0781 158.304 55.7188 157.741 55.5156C156.523 55.75 155.71 56.7422 155.304 58.4922C155.023 59.4766 154.804 60.5234 154.648 61.6328Z" fill="white"/>
<path d="M146.406 56.9219L146.874 56.8984C147.202 56.9297 147.531 57 147.859 57.1094L148.351 57.3672C148.945 57.7891 149.343 58.2031 149.546 58.6094C149.765 59.0156 149.913 59.3906 149.991 59.7344C150.085 60.0781 150.132 60.5859 150.132 61.2578C150.132 62.0391 150.085 62.8047 149.991 63.5547L149.781 64.7734L149.499 66.0391C149.39 66.3828 149.07 66.6328 148.538 66.7891L147.741 66.8125H145.749L144.554 66.7891C144.585 68.2422 144.812 69.4766 145.234 70.4922C145.562 71.3672 146.124 71.9844 146.921 72.3438L147.226 72.3672C147.46 72.3516 147.718 72.2578 147.999 72.0859C148.327 71.8672 148.718 71.125 149.171 69.8594L149.406 69.8359C149.546 69.8672 149.671 69.9766 149.781 70.1641L149.898 70.4922C149.741 71.5859 149.343 72.3906 148.702 72.9062C148.296 73.2969 147.804 73.5 147.226 73.5156C146.851 73.5156 146.531 73.4922 146.265 73.4453C146.015 73.3828 145.702 73.1562 145.327 72.7656L144.835 72.1094C144.523 71.7812 144.171 70.9844 143.781 69.7188C143.593 68.8594 143.468 67.6328 143.406 66.0391L143.359 63.6484C143.406 62.3359 143.468 61.4453 143.546 60.9766C143.64 60.5078 143.804 59.9297 144.038 59.2422C144.273 58.6641 144.562 58.1719 144.906 57.7656C145.265 57.3281 145.765 57.0469 146.406 56.9219ZM144.484 64.6562L144.531 65.6641L145.656 65.6406H147.648L148.445 65.6172L148.726 64.3984C148.945 63.4922 149.054 62.6875 149.054 61.9844L149.007 60.7422C148.851 59.6016 148.429 58.8203 147.741 58.3984C147.507 58.1953 147.249 58.0938 146.968 58.0938C146.577 58.1094 146.273 58.1797 146.054 58.3047C145.351 58.8984 144.913 59.7109 144.741 60.7422L144.601 61.7266C144.523 62.2891 144.476 62.9062 144.46 63.5781L144.484 64.6562Z" fill="white"/>
<path d="M137.124 44.3047C137.374 44.3047 137.531 44.4297 137.593 44.6797C137.593 45.9453 137.562 47.8516 137.499 50.3984C137.624 59.1484 137.687 66.5547 137.687 72.6172C137.687 74.6016 137.788 75.7656 137.991 76.1094C138.195 76.4688 138.577 76.6406 139.14 76.625L139.585 76.5781C139.913 76.6094 140.031 76.8516 139.937 77.3047C139.702 77.6172 139.327 77.7734 138.812 77.7734C138.546 77.7734 138.273 77.7422 137.991 77.6797C137.054 77.5391 136.577 75.8516 136.562 72.6172V72.5234C136.562 67.0859 136.499 59.6172 136.374 50.1172C136.437 47.6797 136.468 45.9297 136.468 44.8672C136.562 44.4922 136.781 44.3047 137.124 44.3047Z" fill="white"/>
<path d="M127.124 41.3047C127.374 41.3047 127.531 41.4297 127.593 41.6797C127.593 42.9453 127.562 44.8516 127.499 47.3984C127.624 56.1484 127.687 63.5547 127.687 69.6172C127.687 71.6016 127.788 72.7656 127.991 73.1094C128.195 73.4688 128.577 73.6406 129.14 73.625L129.585 73.5781C129.913 73.6094 130.031 73.8516 129.937 74.3047C129.702 74.6172 129.327 74.7734 128.812 74.7734C128.546 74.7734 128.273 74.7422 127.991 74.6797C127.054 74.5391 126.577 72.8516 126.562 69.6172V69.5234C126.562 64.0859 126.499 56.6172 126.374 47.1172C126.437 44.6797 126.468 42.9297 126.468 41.8672C126.562 41.4922 126.781 41.3047 127.124 41.3047Z" fill="white"/>
<path d="M117.71 51.2109L118.062 51.2344C118.39 51.375 118.562 51.6094 118.577 51.9375V52.2188C118.515 52.6406 118.226 52.8516 117.71 52.8516C117.226 52.7266 116.984 52.4688 116.984 52.0781L117.031 51.8203C117.109 51.5234 117.335 51.3203 117.71 51.2109ZM117.827 55.9453C118.14 55.9453 118.296 56.1328 118.296 56.5078L118.32 65.0391L118.366 71.9297C118.366 72.3047 118.179 72.4922 117.804 72.4922C117.429 72.4609 117.234 72.2188 117.218 71.7656L117.195 65.0625L117.171 64.1016V56.5312C117.265 56.1406 117.484 55.9453 117.827 55.9453Z" fill="white"/>
<path d="M105.382 37.2578C105.695 37.2578 105.851 37.4141 105.851 37.7266C105.851 39.5859 105.976 44.6328 106.226 52.8672V55.3984H106.32C106.32 54.9609 107.07 54.4297 108.57 53.8047C109.273 53.7422 109.929 53.7109 110.538 53.7109C111.163 53.7109 111.663 54.0547 112.038 54.7422C112.351 55.3203 112.538 57.9453 112.601 62.6172C112.476 66.7422 112.413 69.2109 112.413 70.0234C112.413 70.3984 112.195 70.5859 111.757 70.5859C111.554 70.5859 111.398 70.4531 111.288 70.1875V69.6484C111.288 69.2891 111.351 66.8516 111.476 62.3359C111.476 57.4609 111.226 55.0234 110.726 55.0234C110.726 54.9141 110.57 54.8516 110.257 54.8359H110.163C108.46 54.8359 107.304 55.5234 106.695 56.8984C106.585 56.8984 106.429 57.3672 106.226 58.3047C106.101 62.9297 106.038 66.8984 106.038 70.2109C105.976 70.4609 105.788 70.5859 105.476 70.5859C105.101 70.5859 104.913 70.3047 104.913 69.7422C105.038 61.0391 105.101 55.9453 105.101 54.4609V52.5859C104.851 44.9609 104.726 40.0391 104.726 37.8203C104.82 37.4453 105.038 37.2578 105.382 37.2578Z" fill="white"/>
<path d="M97.0421 54.2383C97.3699 54.3382 97.6125 54.4489 97.7698 54.5706C97.9406 54.6747 98.0274 54.8605 98.0301 55.128C98.0265 55.223 97.9977 55.3054 97.9436 55.3753C97.878 55.4782 97.8075 55.5424 97.732 55.5678C97.6235 55.5817 97.512 55.5723 97.3976 55.5397L96.9845 55.4508L96.5076 55.4172L96.1327 55.4416C95.9197 55.5003 95.7387 55.5629 95.5896 55.6292L95.2587 55.8133L94.7859 56.1809C94.1615 56.7176 93.7842 57.2778 93.6541 57.8616C93.522 58.4298 93.3618 59.3324 93.1735 60.5694C93.0827 61.3372 93.111 62.4205 93.2584 63.8193C93.5021 64.9853 93.7955 65.9244 94.1386 66.6366C94.4953 67.3314 94.8659 67.8274 95.2505 68.1248C95.8182 68.7453 96.5586 69.1152 97.4718 69.2347C97.7082 69.236 97.9969 69.2148 98.3379 69.1712C98.6169 69.1355 98.9159 69.0106 99.2351 68.7965L99.5165 68.5951L99.6703 68.5045C99.7788 68.4907 99.8787 68.533 99.9701 68.6316L100.102 68.9219C100.049 69.4957 99.6947 69.927 99.0386 70.2157L98.3036 70.3806C97.9626 70.4242 97.6594 70.4552 97.3939 70.4734L97.0828 70.4423L96.4283 70.3133C96.147 70.2075 95.8277 70.0515 95.4705 69.8451C95.1114 69.6233 94.8132 69.3858 94.576 69.1326C93.8005 68.3654 93.2379 67.4765 92.8881 66.4658C92.6518 65.8502 92.4809 65.3758 92.3752 65.0428C92.2851 64.7078 92.2193 64.3775 92.1776 64.0521L91.9605 62.355C91.9456 61.8685 91.9527 61.3084 91.9819 60.6746C91.972 60.5971 92.0307 60.1328 92.1581 59.2816C92.1913 58.6788 92.3299 58.0388 92.5741 57.3617C92.8335 56.5567 93.3662 55.7955 94.1723 55.078C94.7411 54.7217 95.2055 54.4733 95.5655 54.3327L95.8851 54.2446C96.0226 54.2112 96.1688 54.1846 96.3238 54.1648C96.5138 54.172 96.7532 54.1965 97.0421 54.2383Z" fill="white"/>
<rect x="109.851" y="38.8672" width="15" height="15" rx="7.5" fill="black"/>
<path d="M117.887 45.6074C118.087 45.641 118.169 45.7639 118.133 45.9761C117.95 47.2931 117.824 48.1576 117.755 48.5695C119.219 47.8788 119.987 47.5075 120.06 47.4556C120.085 47.4598 120.169 47.4547 120.313 47.4404C120.579 47.5365 120.692 47.7032 120.652 47.9403C120.463 48.1523 120.2 48.3007 119.865 48.3855C119.388 48.6262 118.725 48.9061 117.875 49.2252C118.947 50.5608 119.468 51.316 119.439 51.4907L119.43 51.5469C119.394 51.7591 119.264 51.8463 119.039 51.8085C118.864 51.7791 118.33 51.1758 117.437 49.9987L117.078 52.1332C117.036 52.3829 116.903 52.4888 116.678 52.451C116.441 52.4111 116.343 52.2663 116.385 52.0167L116.767 49.751C115.371 50.3378 114.611 50.6207 114.487 50.5997C114.249 50.5598 114.152 50.415 114.194 50.1653C114.234 49.9282 114.828 49.6367 115.978 49.291C115.988 49.2285 116.162 49.1487 116.499 49.0514C116.466 48.9431 115.91 48.3169 114.832 47.1728L114.811 46.8419C114.846 46.6297 114.983 46.5435 115.22 46.5834C115.37 46.6086 115.985 47.1871 117.065 48.3187L117.087 48.1877C117.294 46.7334 117.402 45.975 117.412 45.9126C117.517 45.6734 117.675 45.5717 117.887 45.6074Z" fill="white"/>
<path d="M72.6562 45.3672C72.9688 45.3672 73.125 45.5547 73.125 45.9297V49.4688C73.125 52.125 73.1562 54.3125 73.2188 56.0312V66.4375C73.4219 66.2188 73.6797 65.8906 73.9922 65.4531C74.4922 64.9062 74.9609 64.3438 75.3984 63.7656C75.8672 63.2812 76.3125 62.7344 76.7344 62.125L77.2031 61.8672C77.5156 61.9766 77.6719 62.2188 77.6719 62.5938C77.2188 63.4375 76.6875 64.1875 76.0781 64.8438C75.5469 65.5312 75.1406 66.0469 74.8594 66.3906C74.5781 66.7188 74.375 66.9844 74.25 67.1875C74.75 68.3281 75.4375 70.3281 76.3125 73.1875C76.7031 74.0938 77.0547 75.0234 77.3672 75.9766C77.7266 76.6953 78.0625 77.4766 78.375 78.3203C78.375 78.6328 78.1875 78.7891 77.8125 78.7891C77.4062 78.7891 77.0938 78.3516 76.875 77.4766C76.3125 76.3203 75.9141 75.3438 75.6797 74.5469C75.5859 74.3281 75.2969 73.5312 74.8125 72.1562C74.4375 70.9219 73.9766 69.6406 73.4297 68.3125L73.125 68.7812L73.2656 77.9922C73.2656 78.6172 73.0469 78.9297 72.6094 78.9297C72.4062 78.9297 72.25 78.75 72.1406 78.3906V77.5234L72 65.1016L72.0938 56.125C72.0312 54.5938 72 52.4375 72 49.6562V46.1172C72 45.6172 72.2188 45.3672 72.6562 45.3672Z" fill="white"/>
<path d="M64.0547 57.0547C64.8672 57.1328 65.5078 57.4922 65.9766 58.1328C66.2734 58.5391 66.4375 59 66.4688 59.5156L66.5156 60.2656C66.4844 61.125 66.4844 63.9844 66.5156 68.8438L66.4453 73.1562C66.4141 73.4688 66.2734 73.6562 66.0234 73.7188C65.6016 73.6719 65.3906 73.4219 65.3906 72.9688V68.8438C65.3906 67.9531 65.3984 65.2188 65.4141 60.6406C65.5234 59.2812 65.0234 58.4844 63.9141 58.25C62.5859 58.1562 61.5234 59.0156 60.7266 60.8281L60.6094 72.9688C60.5938 73.2969 60.4453 73.5 60.1641 73.5781C59.7422 73.5312 59.5312 73.2812 59.5312 72.8281V65.8906C59.5312 63.8594 59.5625 61.1719 59.625 57.8281C59.7344 57.4531 59.9844 57.2656 60.375 57.2656C60.6094 57.3438 60.7266 57.5625 60.7266 57.9219L60.6328 58.9766C61.1797 57.6953 62.3203 57.0547 64.0547 57.0547Z" fill="white"/>
<path d="M52.8047 53.5234H53.3672C53.6172 53.5703 53.7891 53.7266 53.8828 53.9922C53.8984 54.3672 53.9766 55.0469 54.1172 56.0312L54.1406 58.9141L54.0938 61.1875C54.0938 62.3438 54.1016 63.5078 54.1172 64.6797L54.1875 66.0391C54.25 66.7578 54.2891 67.3125 54.3047 67.7031C54.3359 68.0781 54.3672 68.4531 54.3984 68.8281V69.1094C54.3984 69.2812 54.2656 69.4297 54 69.5547C53.6719 69.5234 53.4766 69.3359 53.4141 68.9922C53.3516 68.4922 53.2969 67.9844 53.25 67.4688C53.2188 68.0156 52.7344 68.6016 51.7969 69.2266C51.25 69.4453 50.75 69.5703 50.2969 69.6016C49.7656 69.5547 49.3359 69.3984 49.0078 69.1328C48.4609 68.7109 48.0469 68.2188 47.7656 67.6562C47.4219 66.7031 47.2109 65.75 47.1328 64.7969L47.0391 63.4609V62.2188C47.0859 61.4844 47.2656 60.4844 47.5781 59.2188C48.4688 56.0625 49.6484 54.1797 51.1172 53.5703L51.7266 53.3359C52.1172 53.3516 52.4766 53.4141 52.8047 53.5234ZM48.2578 64.7266C48.4141 66.5547 48.9062 67.7266 49.7344 68.2422L50.2734 68.4766C50.4609 68.4766 50.7266 68.4297 51.0703 68.3359C51.4766 68.1953 51.8828 67.8438 52.2891 67.2812L52.6172 66.6719C52.7734 66.3594 52.8594 66.0469 52.875 65.7344V65.0312L52.9688 61.375C52.9844 59.0781 52.9922 57.4922 52.9922 56.6172L52.9219 55.5391L52.875 54.7422L51.7969 54.6719C50.6406 54.9844 49.7266 56.2578 49.0547 58.4922C48.6797 59.3359 48.3984 60.5781 48.2109 62.2188C48.2109 63.0312 48.2266 63.8672 48.2578 64.7266Z" fill="white"/>
<path d="M39.6261 30C39.8348 30 39.9652 30.1606 40.0174 30.4818C40.0174 32.1078 39.9913 34.557 39.9391 37.8291C40.0435 49.071 40.0957 58.5864 40.0957 66.3754C40.0957 68.9248 40.1804 70.4204 40.35 70.862C40.5196 71.3238 40.8391 71.5446 41.3087 71.5245L41.6804 71.4643C41.9543 71.5044 42.0522 71.8156 41.9739 72.3978C41.7783 72.7993 41.4652 73 41.0348 73C40.813 73 40.5848 72.9599 40.35 72.8796C39.5674 72.6989 39.1696 70.5308 39.1565 66.3754V66.2549C39.1565 59.2689 39.1043 49.6732 39 37.4678C39.0522 34.3361 39.0783 32.0878 39.0783 30.7227C39.1565 30.2409 39.3391 30 39.6261 30Z" fill="white"/>
</g>
<defs>
<clipPath id="clip0_8_108">
<rect width="199" height="108" fill="white"/>
</clipPath>
</defs>
</svg>
