<svg width="158" height="158" viewBox="0 0 158 158" fill="none" xmlns="http://www.w3.org/2000/svg">
<g clip-path="url(#clip0_28_2)">
<rect width="158" height="158" fill="black"/>
<rect x="70" y="83" width="15" height="15" rx="7.5" fill="black"/>
<path d="M86.413 23.7131C89.6299 24.2543 90.9508 26.234 90.3757 29.6519C87.4267 50.8642 85.3941 64.7878 84.2777 71.4226C107.858 60.2977 120.236 54.3171 121.41 53.481C121.812 53.5486 123.17 53.4669 125.483 53.2359C129.771 54.7844 131.593 57.4686 130.95 61.2887C127.895 64.7028 123.668 67.0928 118.27 68.4587C110.588 72.3349 99.9055 76.8432 86.2222 81.9838C103.484 103.496 111.878 115.659 111.405 118.474L111.253 119.378C110.677 122.796 108.58 124.201 104.961 123.592C102.147 123.118 93.5475 113.402 79.1641 94.4416L73.3793 128.822C72.7027 132.843 70.5549 134.549 66.9359 133.94C63.1159 133.298 61.5441 130.966 62.2207 126.945L68.3607 90.453C45.889 99.9038 33.6479 104.46 31.6374 104.122C27.8173 103.479 26.2456 101.147 26.9222 97.126C27.5649 93.3059 37.7204 90.2611 55.6521 83.0426C57 82.5 59 81 64.0544 79.1843C63.5208 77.4405 54.5703 67.3545 37.203 48.9262L36.8593 43.5963C37.4344 40.1784 39.632 38.7908 43.4521 39.4335C45.8647 39.8395 55.7716 49.1561 73.1728 67.3833L73.528 65.2722C76.849 41.8483 78.5941 29.6337 78.7633 28.6284C80.4451 24.7764 82.995 23.138 86.413 23.7131Z" fill="white"/>
</g>
<rect x="0.5" y="0.5" width="157" height="157" stroke="black"/>
<defs>
<clipPath id="clip0_28_2">
<rect width="158" height="158" fill="white"/>
</clipPath>
</defs>
</svg>
