<svg width="32" height="32" viewBox="0 0 32 32" fill="none" xmlns="http://www.w3.org/2000/svg">
  <rect width="32" height="32" rx="8" fill="#EC4899"/>
  <path
    d="M8.5 8H14.5C17.2614 8 19.5 10.2386 19.5 13C19.5 13.644 19.4336 14.4436 19.2282 15.1642C18.9 16.3472 17.5188 16.75 16.2041 16.75H14.5C13.3954 16.75 12.5 15.8546 12.5 15C12.5 14.5858 12.1642 14.25 11.75 14.25C11.3358 14.25 11 14.5858 11 15C11 15.8546 10.1046 16.75 9.25 16.75C8.8358 16.75 8.5 17.0858 8.5 17.5C8.5 17.9142 8.8358 18.25 9.25 18.25C10.1046 18.25 11 19.1454 11 20C11 20.4142 11.3358 20.75 11.75 20.75C12.1642 20.75 12.5 20.4142 12.5 20C12.5 19.1454 13.3954 18.25 14.5 18.25H16.2041C17.5188 18.25 18.9 18.6528 19.2282 19.8358C19.4336 20.5564 19.5 21.356 19.5 22C19.5 24.7614 17.2614 27 14.5 27H8.5C7.11929 27 6 25.8807 6 24.5V10.5C6 9.11929 7.11929 8 8.5 8Z"
    fill="white" 
  />
</svg> 